<mxfile host="Electron" modified="2023-07-28T14:54:46.046Z" agent="Mozilla/5.0 (Windows NT 10.0; Win64; x64) AppleWebKit/537.36 (KHTML, like Gecko) draw.io/21.6.5 Chrome/114.0.5735.243 Electron/25.3.1 Safari/537.36" etag="IXf4VYwr5zsCgc3L3_5H" version="21.6.5" type="device">
  <diagram id="jwa446ssh3eUoyviLPdK" name="Схемка">
    <mxGraphModel dx="1290" dy="621" grid="1" gridSize="10" guides="1" tooltips="1" connect="1" arrows="1" fold="1" page="1" pageScale="1" pageWidth="827" pageHeight="1169" math="0" shadow="0">
      <root>
        <mxCell id="0" />
        <mxCell id="1" parent="0" />
        <mxCell id="-EHy-sbMZG0UyWD4hI5W-3" value="" style="edgeStyle=orthogonalEdgeStyle;rounded=0;orthogonalLoop=1;jettySize=auto;html=1;" edge="1" parent="1" source="-EHy-sbMZG0UyWD4hI5W-1" target="-EHy-sbMZG0UyWD4hI5W-2">
          <mxGeometry relative="1" as="geometry" />
        </mxCell>
        <mxCell id="-EHy-sbMZG0UyWD4hI5W-1" value="Start" style="ellipse;whiteSpace=wrap;html=1;" vertex="1" parent="1">
          <mxGeometry x="160" y="40" width="80" height="40" as="geometry" />
        </mxCell>
        <mxCell id="-EHy-sbMZG0UyWD4hI5W-5" value="" style="edgeStyle=orthogonalEdgeStyle;rounded=0;orthogonalLoop=1;jettySize=auto;html=1;" edge="1" parent="1" source="-EHy-sbMZG0UyWD4hI5W-2" target="-EHy-sbMZG0UyWD4hI5W-4">
          <mxGeometry relative="1" as="geometry" />
        </mxCell>
        <mxCell id="-EHy-sbMZG0UyWD4hI5W-2" value="string[] baseArray&lt;br&gt;string[] newArray&lt;br&gt;int count = 0" style="shape=parallelogram;perimeter=parallelogramPerimeter;whiteSpace=wrap;html=1;fixedSize=1;" vertex="1" parent="1">
          <mxGeometry x="130" y="120" width="140" height="40" as="geometry" />
        </mxCell>
        <mxCell id="-EHy-sbMZG0UyWD4hI5W-7" value="" style="edgeStyle=orthogonalEdgeStyle;rounded=0;orthogonalLoop=1;jettySize=auto;html=1;" edge="1" parent="1" source="-EHy-sbMZG0UyWD4hI5W-4" target="-EHy-sbMZG0UyWD4hI5W-6">
          <mxGeometry relative="1" as="geometry" />
        </mxCell>
        <mxCell id="-EHy-sbMZG0UyWD4hI5W-23" value="" style="edgeStyle=orthogonalEdgeStyle;rounded=0;orthogonalLoop=1;jettySize=auto;html=1;" edge="1" parent="1" source="-EHy-sbMZG0UyWD4hI5W-4" target="-EHy-sbMZG0UyWD4hI5W-22">
          <mxGeometry relative="1" as="geometry" />
        </mxCell>
        <mxCell id="-EHy-sbMZG0UyWD4hI5W-4" value="for (int i = 0; i &amp;lt; baseArray.Length; i++)" style="shape=hexagon;perimeter=hexagonPerimeter2;whiteSpace=wrap;html=1;fixedSize=1;" vertex="1" parent="1">
          <mxGeometry x="90" y="200" width="220" height="40" as="geometry" />
        </mxCell>
        <mxCell id="-EHy-sbMZG0UyWD4hI5W-15" style="edgeStyle=orthogonalEdgeStyle;rounded=0;orthogonalLoop=1;jettySize=auto;html=1;entryX=0;entryY=0.5;entryDx=0;entryDy=0;" edge="1" parent="1" source="-EHy-sbMZG0UyWD4hI5W-6" target="-EHy-sbMZG0UyWD4hI5W-4">
          <mxGeometry relative="1" as="geometry">
            <Array as="points">
              <mxPoint x="40" y="320" />
              <mxPoint x="40" y="220" />
            </Array>
          </mxGeometry>
        </mxCell>
        <mxCell id="-EHy-sbMZG0UyWD4hI5W-18" value="" style="edgeStyle=orthogonalEdgeStyle;rounded=0;orthogonalLoop=1;jettySize=auto;html=1;" edge="1" parent="1" source="-EHy-sbMZG0UyWD4hI5W-6" target="-EHy-sbMZG0UyWD4hI5W-17">
          <mxGeometry relative="1" as="geometry" />
        </mxCell>
        <mxCell id="-EHy-sbMZG0UyWD4hI5W-6" value="if (baseArray[i].Length &amp;lt;= 3)" style="rhombus;whiteSpace=wrap;html=1;" vertex="1" parent="1">
          <mxGeometry x="100" y="280" width="200" height="80" as="geometry" />
        </mxCell>
        <mxCell id="-EHy-sbMZG0UyWD4hI5W-16" value="No" style="text;html=1;align=center;verticalAlign=middle;resizable=0;points=[];autosize=1;strokeColor=none;fillColor=none;" vertex="1" parent="1">
          <mxGeometry x="30" y="250" width="40" height="30" as="geometry" />
        </mxCell>
        <mxCell id="-EHy-sbMZG0UyWD4hI5W-21" style="edgeStyle=orthogonalEdgeStyle;rounded=0;orthogonalLoop=1;jettySize=auto;html=1;entryX=0.91;entryY=1.06;entryDx=0;entryDy=0;entryPerimeter=0;" edge="1" parent="1" source="-EHy-sbMZG0UyWD4hI5W-17" target="-EHy-sbMZG0UyWD4hI5W-4">
          <mxGeometry relative="1" as="geometry">
            <Array as="points">
              <mxPoint x="445" y="270" />
              <mxPoint x="290" y="270" />
            </Array>
          </mxGeometry>
        </mxCell>
        <mxCell id="-EHy-sbMZG0UyWD4hI5W-17" value="newArray[count] = baseArray[i]&lt;br&gt;count++" style="whiteSpace=wrap;html=1;" vertex="1" parent="1">
          <mxGeometry x="360" y="290" width="170" height="60" as="geometry" />
        </mxCell>
        <mxCell id="-EHy-sbMZG0UyWD4hI5W-20" value="Yes" style="text;html=1;align=center;verticalAlign=middle;resizable=0;points=[];autosize=1;strokeColor=none;fillColor=none;" vertex="1" parent="1">
          <mxGeometry x="300" y="300" width="40" height="30" as="geometry" />
        </mxCell>
        <mxCell id="-EHy-sbMZG0UyWD4hI5W-25" value="" style="edgeStyle=orthogonalEdgeStyle;rounded=0;orthogonalLoop=1;jettySize=auto;html=1;" edge="1" parent="1" source="-EHy-sbMZG0UyWD4hI5W-22" target="-EHy-sbMZG0UyWD4hI5W-24">
          <mxGeometry relative="1" as="geometry" />
        </mxCell>
        <mxCell id="-EHy-sbMZG0UyWD4hI5W-22" value="print newArray" style="shape=document;whiteSpace=wrap;html=1;boundedLbl=1;" vertex="1" parent="1">
          <mxGeometry x="395" y="185" width="100" height="70" as="geometry" />
        </mxCell>
        <mxCell id="-EHy-sbMZG0UyWD4hI5W-24" value="Finish" style="ellipse;whiteSpace=wrap;html=1;" vertex="1" parent="1">
          <mxGeometry x="590" y="195" width="60" height="50" as="geometry" />
        </mxCell>
      </root>
    </mxGraphModel>
  </diagram>
</mxfile>
